<?xml version="1.0" encoding="UTF-8" standalone="no"?>
<!-- Created with Inkscape (http://www.inkscape.org/) -->

<svg
   id="svg1998"
   width="66.000435"
   height="44.5159"
   version="1.0"
   xml:space="preserve"
   xmlns:xlink="http://www.w3.org/1999/xlink"
   xmlns="http://www.w3.org/2000/svg"
   xmlns:svg="http://www.w3.org/2000/svg"
   xmlns:rdf="http://www.w3.org/1999/02/22-rdf-syntax-ns#"
   xmlns:cc="http://creativecommons.org/ns#"
   xmlns:dc="http://purl.org/dc/elements/1.1/"><metadata
     id="metadata2003"><rdf:RDF><cc:Work
         rdf:about=""><dc:format>image/svg+xml</dc:format><dc:type
           rdf:resource="http://purl.org/dc/dcmitype/StillImage" /><dc:title>Router</dc:title><dc:creator><cc:Agent><dc:title>Jeremy Grossmann</dc:title></cc:Agent></dc:creator><dc:publisher><cc:Agent><dc:title>GNS-3</dc:title></cc:Agent></dc:publisher><dc:description>Created for the GNS-3 project (www.gns3.net)</dc:description><cc:license
           rdf:resource="http://creativecommons.org/licenses/GPL/2.0/" /></cc:Work><cc:License
         rdf:about="http://creativecommons.org/licenses/GPL/2.0/"><cc:permits
           rdf:resource="http://web.resource.org/cc/Reproduction" /><cc:permits
           rdf:resource="http://web.resource.org/cc/Distribution" /><cc:requires
           rdf:resource="http://web.resource.org/cc/Notice" /><cc:permits
           rdf:resource="http://web.resource.org/cc/DerivativeWorks" /><cc:requires
           rdf:resource="http://web.resource.org/cc/ShareAlike" /><cc:requires
           rdf:resource="http://web.resource.org/cc/SourceCode" /></cc:License></rdf:RDF></metadata><defs
     id="defs2001"><linearGradient
       id="linearGradient9312"><stop
         style="stop-color:#3c8c8c;stop-opacity:1;"
         offset="0"
         id="stop9314" /><stop
         style="stop-color:#ffffff;stop-opacity:0.94117647;"
         offset="1"
         id="stop9316" /></linearGradient><linearGradient
       xlink:href="#linearGradient9312"
       id="linearGradient2216"
       gradientUnits="userSpaceOnUse"
       gradientTransform="matrix(15.252829,0,0,14.082619,53.467529,3.4188377)"
       x1="-1.0929121"
       y1="0.63145506"
       x2="-4.5832458"
       y2="0.070047863" /></defs><rect
     style="opacity:1;fill:#000000;fill-opacity:0.392157;fill-rule:evenodd;stroke:none;stroke-width:0.2;stroke-linecap:square;stroke-linejoin:miter;stroke-miterlimit:4;stroke-dasharray:none;stroke-opacity:1"
     id="rect4558"
     width="64.552505"
     height="41.53862"
     x="1.4479325"
     y="2.9772801"
     ry="11.631706"
     rx="32.212925" /><rect
     style="opacity:1;fill:#3c8c8c;fill-opacity:1;fill-rule:evenodd;stroke:none;stroke-width:0.015;stroke-linecap:square;stroke-linejoin:miter;stroke-miterlimit:4;stroke-dasharray:none;stroke-opacity:1"
     id="rect9971"
     width="64.499474"
     height="42.154343"
     x="0.0625"
     y="0.18084908"
     ry="11.557454"
     rx="32.249737" /><g
     id="g4160"><path
       id="path4815"
       d="M 64.514069,11.541297 64.457031,10.955643 64.342949,10.36999 64.152814,9.8038604 63.867612,9.2182077 63.487345,8.6520765 63.050034,8.0859452 62.517657,7.5393369 61.909226,7.0122499 61.224742,6.4851607 60.464203,5.9775955 59.646626,5.4700289 58.752993,4.9819859 57.783307,4.4939413 56.75658,4.0644625 55.6538,3.6349838 54.493981,3.2055052 53.296132,2.8150692 52.022232,2.4636777 50.710303,2.1122862 49.341334,1.7999375 47.934339,1.5071117 46.489316,1.2338059 45.006267,0.99954576 43.504204,0.76528425 41.964114,0.58958842 40.385997,0.43341443 38.788867,0.29676153 37.191738,0.19915292 35.575597,0.12106555 33.940437,0.06250017 h -1.616141 v 0 h -1.63516 l -1.635155,0.05856538 -1.597131,0.0780874 -1.616145,0.0976086 -1.597129,0.1366529 -1.559104,0.15617399 -1.5591,0.17569583 -1.502065,0.23426151 -1.483049,0.23426012 -1.445024,0.2733058 -1.406994,0.2928258 -1.368967,0.3123487 -1.311931,0.3513915 -1.2739,0.3513915 -1.19785,0.390436 L 8.9757693,3.6349838 7.8729941,4.0644625 6.8462664,4.4939413 5.8765785,4.9819859 4.9829488,5.4700289 4.1653682,5.9775955 3.4048335,6.4851607 2.7203448,7.0122499 2.1309311,7.5393369 1.5795405,8.0859452 1.1422325,8.6520765 0.76195982,9.2182077 0.47676065,9.8038604 0.26760898,10.36999 0.15353084,10.955643 0.11550327,11.541297 v 0 l 0.0380276,0.585653 0.11407814,0.566131 0.20915167,0.585653 0.28519917,0.54661 0.38027265,0.585652 0.437308,0.546609 0.5513906,0.566131 0.5894137,0.546612 0.6844887,0.527087 0.7605347,0.488044 0.8175806,0.507564 0.8936297,0.507565 0.9696879,0.449001 1.0267277,0.449002 1.1027752,0.449002 1.1598227,0.409958 1.19785,0.390436 1.2739,0.351389 1.311931,0.351391 1.368967,0.312348 1.406994,0.312351 1.445024,0.253779 1.483049,0.253784 1.502065,0.214738 1.5591,0.175698 1.559104,0.156176 1.597129,0.136651 1.616145,0.09761 1.597131,0.07809 1.635155,0.05857 h 1.63516 v 0 h 1.616141 l 1.63516,-0.05857 1.616141,-0.07809 1.597129,-0.09761 1.59713,-0.136651 1.578117,-0.156176 1.54009,-0.175698 1.502063,-0.214738 1.483049,-0.253784 1.445023,-0.253779 1.406995,-0.312351 1.368969,-0.312348 1.311929,-0.351391 1.2739,-0.351389 1.197849,-0.390436 1.159819,-0.409958 1.10278,-0.449002 1.026727,-0.449002 0.969686,-0.449001 0.893633,-0.507565 0.817577,-0.507564 0.760539,-0.488044 0.684484,-0.527087 0.608431,-0.546612 0.532377,-0.566131 0.437311,-0.546609 0.380267,-0.585652 0.285202,-0.54661 0.190135,-0.585653 0.114082,-0.566131 0.05704,-0.585653"
       style="fill:url(#linearGradient2216);fill-opacity:1;stroke:none;stroke-width:0.019286;stroke-miterlimit:4;stroke-dasharray:none;stroke-opacity:1" /><path
       id="path4819"
       d="M 33.023738,8.6936939 37.664889,10.327433 48.909313,5.4458969 53.946665,7.0599533 51.229891,3.0248142 H 38.061087 L 43.475766,4.225514 33.023738,8.6936939"
       style="fill:#000000;stroke:none;stroke-width:0.001" /><path
       id="path4821"
       d="m 31.08049,13.161874 -4.641156,-1.633742 -10.84823,4.90122 -5.414679,-1.653423 2.697907,4.46818 H 26.439334 L 20.628458,17.630052 31.08049,13.161874"
       style="fill:#000000;stroke:none;stroke-width:0.001" /><path
       id="path4823"
       d="m 11.327278,4.225514 4.641157,-1.614056 11.244424,4.4484953 5.037351,-1.2007 -2.697907,4.0351406 H 16.364632 l 5.414681,-1.2007 L 11.327278,4.225514"
       style="fill:#000000;stroke:none;stroke-width:0.001" /><path
       id="path4825"
       d="m 53.154272,18.023723 -4.641155,1.633744 -10.848228,-4.881538 -5.414679,1.653423 2.716775,-4.094192 h 13.546132 l -5.810877,1.220384 10.452032,4.468179"
       style="fill:#000000;stroke:none;stroke-width:0.001" /><path
       id="path4827"
       d="M 33.419936,9.1070493 38.061087,10.721105 49.286643,5.8592533 54.323994,7.4929926 51.60722,3.4184854 H 38.438415 l 5.433547,1.2007018 -10.452026,4.4878621"
       style="fill:#ffffff;stroke:none;stroke-width:0.001" /><path
       id="path4829"
       d="m 31.476681,13.555544 -4.660016,-1.614057 -10.84823,4.861854 -5.414682,-1.614057 2.697907,4.468183 h 13.565005 l -5.810879,-1.633744 10.470895,-4.468179"
       style="fill:#ffffff;stroke:none;stroke-width:0.001" /><path
       id="path4831"
       d="m 11.723476,4.6191872 4.641156,-1.594373 11.244423,4.4681784 5.018486,-1.240066 -2.697907,4.0745064 H 16.741963 L 22.175509,9.1070493 11.723476,4.6191872"
       style="fill:#ffffff;stroke:none;stroke-width:0.001" /><path
       id="path4833"
       d="m 53.531602,18.43708 -4.622289,1.633743 -10.848226,-4.881539 -5.433546,1.614057 2.716774,-4.035141 h 13.564998 l -5.810876,1.2007 10.433165,4.46818"
       style="fill:#ffffff;stroke:none;stroke-width:0.001" /></g><g
     style="fill:#c4122e"
     id="g5"
     transform="matrix(0.80263701,0,0,0.85354454,8.1494511,11.104803)"><path
       d="m 23.521,25.2449 h -3.157 v 12.511 h 3.157 z"
       style="fill:#c4122e;stroke-width:0.096737"
       id="path268" /><use
       xlink:href="#path284"
       transform="translate(32.9532)"
       id="use360" /><path
       d="m 16.0236,28.8299 c -0.127,-0.066 -1.142,-0.668 -2.652,-0.668 -2.045,0 -3.46,1.421 -3.46,3.337 0,1.859 1.356,3.34 3.46,3.34 1.484,0 2.516,-0.589 2.652,-0.664 v 3.358 c -0.392,0.111 -1.469,0.445 -2.879,0.445 -3.549,0 -6.662,-2.448 -6.662,-6.479 0,-3.736 2.82,-6.476 6.662,-6.476 1.486,0 2.582,0.361 2.879,0.449 z"
       id="path284" /><path
       d="m 58.9084,28.2088 c -1.873,0 -3.264,1.474 -3.264,3.29 0,1.82 1.391,3.293 3.264,3.293 1.871,0 3.266,-1.473 3.266,-3.293 0,-1.816 -1.395,-3.29 -3.266,-3.29 m 6.611,3.29 c 0,3.579 -2.763,6.479 -6.611,6.479 -3.848,0 -6.607,-2.9 -6.607,-6.479 0,-3.573 2.759,-6.476 6.607,-6.476 3.848,0 6.611,2.903 6.611,6.476"
       id="path288" /><path
       d="m 35.4934,28.0887 c -0.047,-0.015 -1.376,-0.382 -2.468,-0.382 -1.265,0 -1.953,0.424 -1.953,1.025 0,0.762 0.928,1.028 1.447,1.192 l 0.871,0.277 c 2.049,0.652 2.983,2.055 2.983,3.579 0,3.143 -2.764,4.199 -5.18,4.199 -1.679,0 -3.252,-0.309 -3.407,-0.342 v -2.879 c 0.278,0.07 1.602,0.465 2.981,0.465 1.571,0 2.293,-0.459 2.293,-1.168 0,-0.634 -0.625,-1 -1.408,-1.246 -0.191,-0.064 -0.478,-0.154 -0.674,-0.218 -1.758,-0.556 -3.224,-1.589 -3.224,-3.66 0,-2.34 1.752,-3.911 4.662,-3.911 1.537,0 2.983,0.373 3.077,0.398 z"
       id="path292" /><g
       style="fill:#15495d"
       id="g383"><path
         d="m 3.135,11.7996 c 0,-0.862 -0.704,-1.561 -1.567,-1.561 -0.863,0 -1.568,0.699 -1.568,1.561 v 3.284 c 0,0.867 0.705,1.567 1.568,1.567 0.863,0 1.567,-0.7 1.567,-1.567 z"
         id="path296" /><path
         d="m 11.7443,7.4891 c 0,-0.862 -0.704,-1.563 -1.567,-1.563 -0.864,0 -1.568,0.701 -1.568,1.563 v 7.595 c 0,0.867 0.704,1.566 1.568,1.566 0.863,0 1.567,-0.699 1.567,-1.566 z"
         id="path300" /><path
         d="m 20.3537,1.5916 c 0,-0.862 -0.704,-1.562 -1.567,-1.562 -0.864,0 -1.568,0.7 -1.568,1.562 v 16.613 c 0,0.867 0.704,1.567 1.568,1.567 0.863,0 1.567,-0.7 1.567,-1.567 z"
         id="path304" /><path
         d="m 28.9631,7.4891 c 0,-0.862 -0.704,-1.563 -1.567,-1.563 -0.864,0 -1.568,0.701 -1.568,1.563 v 7.595 c 0,0.867 0.704,1.566 1.568,1.566 0.863,0 1.567,-0.699 1.567,-1.566 z"
         id="path308" /><path
         d="m 37.5627,11.7996 c 0,-0.862 -0.699,-1.561 -1.558,-1.561 -0.863,0 -1.567,0.699 -1.567,1.561 v 3.284 c 0,0.867 0.704,1.567 1.567,1.567 0.859,0 1.558,-0.7 1.558,-1.567 z"
         id="path312" /></g><use
       xlink:href="#g383"
       transform="translate(34.4317)"
       id="use385" /><path
       d="m 70.1936,36.1082 v 0.196 h -0.558 v 1.451 h -0.229 v -1.451 h -0.561 v -0.196 z"
       id="path332" /><path
       d="m 70.3107,36.1082 h 0.359 l 0.493,1.351 h 0.008 l 0.477,-1.351 h 0.352 v 1.647 h -0.235 v -1.35 h -0.008 l -0.5,1.35 h -0.217 l -0.488,-1.35 h -0.011 v 1.35 h -0.23 z"
       id="path336" /></g></svg>
