<?xml version="1.0" encoding="UTF-8" standalone="no"?>
<!-- Created with Inkscape (http://www.inkscape.org/) -->

<svg
   id="svg1998"
   width="71.851372"
   height="32.285366"
   version="1.0"
   xmlns:xlink="http://www.w3.org/1999/xlink"
   xmlns="http://www.w3.org/2000/svg"
   xmlns:svg="http://www.w3.org/2000/svg"
   xmlns:rdf="http://www.w3.org/1999/02/22-rdf-syntax-ns#"
   xmlns:cc="http://creativecommons.org/ns#"
   xmlns:dc="http://purl.org/dc/elements/1.1/">
  <metadata
     id="metadata2003">
    <rdf:RDF>
      <cc:Work
         rdf:about="">
        <dc:format>image/svg+xml</dc:format>
        <dc:type
           rdf:resource="http://purl.org/dc/dcmitype/StillImage" />
        <dc:title>Switch</dc:title>
        <dc:creator>
          <cc:Agent>
            <dc:title>Jeremy Grossmann</dc:title>
          </cc:Agent>
        </dc:creator>
        <dc:publisher>
          <cc:Agent>
            <dc:title>GNS-3</dc:title>
          </cc:Agent>
        </dc:publisher>
        <dc:description>Created for the GNS-3 project (www.gns3.net)</dc:description>
        <cc:license
           rdf:resource="http://creativecommons.org/licenses/GPL/2.0/" />
      </cc:Work>
      <cc:License
         rdf:about="http://creativecommons.org/licenses/GPL/2.0/">
        <cc:permits
           rdf:resource="http://web.resource.org/cc/Reproduction" />
        <cc:permits
           rdf:resource="http://web.resource.org/cc/Distribution" />
        <cc:requires
           rdf:resource="http://web.resource.org/cc/Notice" />
        <cc:permits
           rdf:resource="http://web.resource.org/cc/DerivativeWorks" />
        <cc:requires
           rdf:resource="http://web.resource.org/cc/ShareAlike" />
        <cc:requires
           rdf:resource="http://web.resource.org/cc/SourceCode" />
      </cc:License>
    </rdf:RDF>
  </metadata>
  <defs
     id="defs2001">
    <linearGradient
       id="linearGradient6587">
      <stop
         style="stop-color:#6e8caa;stop-opacity:1;"
         offset="0"
         id="stop6589" />
      <stop
         style="stop-color:#edeff3;stop-opacity:1;"
         offset="1"
         id="stop6591" />
    </linearGradient>
    <linearGradient
       xlink:href="#linearGradient6587"
       id="linearGradient11856"
       gradientUnits="userSpaceOnUse"
       gradientTransform="matrix(15.191597,0,0,15.33747,-2.6428869,0.1648577)"
       x1="3.95626"
       y1="0.64267641"
       x2="-1.2664427"
       y2="0.62730032" />
  </defs>
  <path
     style="fill:#000000;fill-opacity:0.392157;stroke:none;stroke-width:0.001"
     d="M 2.1663193,16.589602 V 32.285367 H 54.763443 V 16.589602 H 2.1663193"
     id="path13703" />
  <path
     style="fill:#000000;fill-opacity:0.392157;stroke:none;stroke-width:0.001"
     d="M 54.724715,18.919483 71.109211,3.1102265 V 16.523256 L 54.724715,32.33251 V 18.919483"
     id="path14592" />
  <path
     style="fill:#6e8296;fill-opacity:1;stroke:none;stroke-width:0.001"
     d="M 54.781867,16.528044 71.793065,0.13423853 V 14.043216 L 54.781867,30.437021 V 16.528044"
     id="path2009" />
  <path
     style="fill:#6e8caa;fill-opacity:1;stroke:none;stroke-width:0.00110589"
     d="M 0.21478248,16.474061 V 30.310372 H 55.069651 V 16.474061 H 0.21478248"
     id="path2007" />
  <path
     style="fill:url(#linearGradient11856);fill-opacity:1;stroke:none;stroke-width:0.0150529;stroke-opacity:1"
     d="M 55.06494,16.770099 72.155489,0.17496232 H 16.934026 L -0.11094903,16.770099 H 55.06494"
     id="path2013" />
  <path
     style="fill:#000000;stroke:none;stroke-width:0.001"
     d="m 34.445201,8.5762092 -1.98442,1.9443188 H 46.35171 L 44.382325,13.007447 55.792729,10.038216 49.839474,7.5814414 48.336128,8.5762092 H 34.445201"
     id="path2017" />
  <path
     style="fill:#000000;stroke:none;stroke-width:0.001"
     d="m 41.390664,2.1403638 -1.984419,1.974463 H 53.312208 L 50.831684,6.5866738 62.738193,3.1502034 56.288834,0.64821244 55.326692,2.1403638 H 41.390664"
     id="path2019" />
  <path
     style="fill:#000000;stroke:none;stroke-width:0.001"
     d="M 29.469121,14.002214 31.49864,12.012679 H 17.066506 L 19.562064,9.5408322 8.1065578,12.494991 14.08988,14.98191 15.097122,14.002214 h 14.371999"
     id="path2021" />
  <path
     style="fill:#000000;stroke:none;stroke-width:0.001"
     d="M 35.948548,7.0539132 37.932966,5.1246667 H 24.027005 L 26.52256,2.6377476 14.585984,6.08929 l 6.449359,2.4869192 0.992209,-1.522296 h 13.920996"
     id="path2023" />
  <path
     style="fill:#ffffff;stroke:none;stroke-width:0.001"
     d="m 34.941305,9.028376 -1.984419,1.989535 H 46.862849 L 44.87843,13.489758 56.288834,10.520528 50.320547,8.0637529 48.847268,9.028376 H 34.941305"
     id="path2025" />
  <path
     style="fill:#ffffff;stroke:none;stroke-width:0.001"
     d="M 41.901802,2.6377476 39.90235,4.5971384 H 53.808312 L 51.327789,7.0539132 63.249333,3.6023707 56.799974,1.1455961 55.792729,2.6377476 H 41.901802"
     id="path2027" />
  <path
     style="fill:#ffffff;stroke:none;stroke-width:0.001"
     d="m 29.965225,14.484526 1.98442,-1.989535 h -14.372 l 2.450456,-2.456775 -11.4104052,2.969231 5.9682882,2.471846 0.977175,-0.994767 h 14.402066"
     id="path2029" />
  <path
     style="fill:#ffffff;stroke:none;stroke-width:0.001"
     d="M 36.414585,7.5814414 38.429071,5.5919059 H 24.508076 l 2.495556,-2.4417025 -11.90651,3.4364704 6.449359,2.4417022 0.962144,-1.4469346 h 13.90596"
     id="path2031" />
  <g
     style="fill:#c4122e"
     id="g5"
     transform="matrix(0.71757327,0,0,0.67140761,19.630556,4.8882856)">
    <path
       d="m 23.521,25.2449 h -3.157 v 12.511 h 3.157 z"
       style="fill:#c4122e;stroke-width:0.096737"
       id="path268" />
    <use
       xlink:href="#path284"
       transform="translate(32.9532)"
       id="use360" />
    <path
       d="m 16.0236,28.8299 c -0.127,-0.066 -1.142,-0.668 -2.652,-0.668 -2.045,0 -3.46,1.421 -3.46,3.337 0,1.859 1.356,3.34 3.46,3.34 1.484,0 2.516,-0.589 2.652,-0.664 v 3.358 c -0.392,0.111 -1.469,0.445 -2.879,0.445 -3.549,0 -6.662,-2.448 -6.662,-6.479 0,-3.736 2.82,-6.476 6.662,-6.476 1.486,0 2.582,0.361 2.879,0.449 z"
       id="path284" />
    <path
       d="m 58.9084,28.2088 c -1.873,0 -3.264,1.474 -3.264,3.29 0,1.82 1.391,3.293 3.264,3.293 1.871,0 3.266,-1.473 3.266,-3.293 0,-1.816 -1.395,-3.29 -3.266,-3.29 m 6.611,3.29 c 0,3.579 -2.763,6.479 -6.611,6.479 -3.848,0 -6.607,-2.9 -6.607,-6.479 0,-3.573 2.759,-6.476 6.607,-6.476 3.848,0 6.611,2.903 6.611,6.476"
       id="path288" />
    <path
       d="m 35.4934,28.0887 c -0.047,-0.015 -1.376,-0.382 -2.468,-0.382 -1.265,0 -1.953,0.424 -1.953,1.025 0,0.762 0.928,1.028 1.447,1.192 l 0.871,0.277 c 2.049,0.652 2.983,2.055 2.983,3.579 0,3.143 -2.764,4.199 -5.18,4.199 -1.679,0 -3.252,-0.309 -3.407,-0.342 v -2.879 c 0.278,0.07 1.602,0.465 2.981,0.465 1.571,0 2.293,-0.459 2.293,-1.168 0,-0.634 -0.625,-1 -1.408,-1.246 -0.191,-0.064 -0.478,-0.154 -0.674,-0.218 -1.758,-0.556 -3.224,-1.589 -3.224,-3.66 0,-2.34 1.752,-3.911 4.662,-3.911 1.537,0 2.983,0.373 3.077,0.398 z"
       id="path292" />
    <g
       style="fill:#15495d"
       id="g383">
      <path
         d="m 3.135,11.7996 c 0,-0.862 -0.704,-1.561 -1.567,-1.561 -0.863,0 -1.568,0.699 -1.568,1.561 v 3.284 c 0,0.867 0.705,1.567 1.568,1.567 0.863,0 1.567,-0.7 1.567,-1.567 z"
         id="path296" />
      <path
         d="m 11.7443,7.4891 c 0,-0.862 -0.704,-1.563 -1.567,-1.563 -0.864,0 -1.568,0.701 -1.568,1.563 v 7.595 c 0,0.867 0.704,1.566 1.568,1.566 0.863,0 1.567,-0.699 1.567,-1.566 z"
         id="path300" />
      <path
         d="m 20.3537,1.5916 c 0,-0.862 -0.704,-1.562 -1.567,-1.562 -0.864,0 -1.568,0.7 -1.568,1.562 v 16.613 c 0,0.867 0.704,1.567 1.568,1.567 0.863,0 1.567,-0.7 1.567,-1.567 z"
         id="path304" />
      <path
         d="m 28.9631,7.4891 c 0,-0.862 -0.704,-1.563 -1.567,-1.563 -0.864,0 -1.568,0.701 -1.568,1.563 v 7.595 c 0,0.867 0.704,1.566 1.568,1.566 0.863,0 1.567,-0.699 1.567,-1.566 z"
         id="path308" />
      <path
         d="m 37.5627,11.7996 c 0,-0.862 -0.699,-1.561 -1.558,-1.561 -0.863,0 -1.567,0.699 -1.567,1.561 v 3.284 c 0,0.867 0.704,1.567 1.567,1.567 0.859,0 1.558,-0.7 1.558,-1.567 z"
         id="path312" />
    </g>
    <use
       xlink:href="#g383"
       transform="translate(34.4317)"
       id="use385" />
    <path
       d="m 70.1936,36.1082 v 0.196 h -0.558 v 1.451 h -0.229 v -1.451 h -0.561 v -0.196 z"
       id="path332" />
    <path
       d="m 70.3107,36.1082 h 0.359 l 0.493,1.351 h 0.008 l 0.477,-1.351 h 0.352 v 1.647 h -0.235 v -1.35 h -0.008 l -0.5,1.35 h -0.217 l -0.488,-1.35 h -0.011 v 1.35 h -0.23 z"
       id="path336" />
  </g>
</svg>
